{"title":"The Witches of Oz 2011 BRRip XviD Ac3 Feel-Free","uid":6924482,"size":2213899999,"categoryP":"video","categoryS":"movies","magnet":"?xt=urn:btih:873c4d5c688f56b69257321f76efb73b3887617a&amp;dn=The+Witches+of+Oz+2011+BRRip+XviD+Ac3+Feel-Free&amp;tr=udp%3A%2F%2Ftracker.openbittorrent.com%3A80&amp;tr=udp%3A%2F%2Fopen.demonii.com%3A1337&amp;tr=udp%3A%2F%2Ftracker.coppersurfer.tk%3A6969&amp;tr=udp%3A%2F%2Fexodus.desync.com%3A6969","seeders":4,"leechers":3,"uploader":"rcbcsk","files":-1,"time":1325377811,"description":"Genre:Action | Comedy | Fantasy\nLanguage:English\nIMDb:http://www.imdb.com/title/tt1592287/\nSource:720p.BluRay.x264-SKmbr Thanks!\n\normat : AVI\nFormat/Info : Audio Video Interleave\nFormat profile : OpenDML\nFile size : 2.06 GiB\nDuration : 2h 45mn\nOverall bit rate : 1 781 Kbps\n\nVideo\nID : 0\nFormat : MPEG-4 Visual\nFormat profile : Advanced Simple@L5\nFormat settings, BVOP : Yes\nFormat settings, QPel : No\nFormat settings, GMC : No warppoints\nFormat settings, Matrix : Default (H.263)\nCodec ID : XVID\nCodec ID/Hint : XviD\nDuration : 2h 45mn\nBit rate : 1 321 Kbps\nWidth : 640 pixels\nHeight : 360 pixels\nDisplay aspect ratio : 16:9\nFrame rate : 23.976 fps\nColor space : YUV\nChroma subsampling : 4:2:0\nBit depth : 8 bits\nScan type : Progressive\nBits/(Pixel*Frame) : 0.239\nStream size : 1.53 GiB (74%)\nWriting library : XviD 1.2.1 (UTC 2008-12-04)\n\nAudio\nID : 1\nFormat : AC-3\nFormat/Info : Audio Coding 3\nMode extension : CM (complete main)\nCodec ID : 2000\nDuration : 2h 45mn\nBit rate mode : Constant\nBit rate : 448 Kbps\nChannel(s) : 6 channels\nChannel positions : Front: L C R, Side: L R, LFE\nSampling rate : 48.0 KHz\nBit depth : 16 bits\nStream size : 531 MiB (25%)\nAlignment : Aligned on interleaves\nInterleave, duration : 42 ms (1.00 video frame)\nInterleave, preload duration : 512 ms\n\n\nPlot:\nDorothy Gale discovers that her best selling novels are actually based on suppressed childhood memories of her time in Oz, and that she may be in danger of experiencing it all over again\n\nScreens\n &lt;a href=&quot;\nhttp://postimg.com/image/57000/photo-56391.jpg&quot; rel=&quot;nofollow&quot; target=&quot;_NEW&quot;&gt;\nhttp://postimg.com/image/57000/photo-56391.jpg&lt;/a&gt;\n &lt;a href=&quot;\nhttp://postimg.com/image/57000/photo-56392.jpg&quot; rel=&quot;nofollow&quot; target=&quot;_NEW&quot;&gt;\nhttp://postimg.com/image/57000/photo-56392.jpg&lt;/a&gt;\n &lt;a href=&quot;\nhttp://postimg.com/image/57000/photo-56393.jpg&quot; rel=&quot;nofollow&quot; target=&quot;_NEW&quot;&gt;\nhttp://postimg.com/image/57000/photo-56393.jpg&lt;/a&gt;\n &lt;a href=&quot;\nhttp://postimg.com/image/57000/photo-56394.jpg&quot; rel=&quot;nofollow&quot; target=&quot;_NEW&quot;&gt;\nhttp://postimg.com/image/57000/photo-56394.jpg&lt;/a&gt;\n\n","torrent":{"xt":"urn:btih:873c4d5c688f56b69257321f76efb73b3887617a","amp;dn":"The+Witches+of+Oz+2011+BRRip+XviD+Ac3+Feel-Free","amp;tr":["udp%3A%2F%2Ftracker.openbittorrent.com%3A80","udp%3A%2F%2Fopen.demonii.com%3A1337","udp%3A%2F%2Ftracker.coppersurfer.tk%3A6969","udp%3A%2F%2Fexodus.desync.com%3A6969"],"infoHash":"873c4d5c688f56b69257321f76efb73b3887617a","infoHashBuffer":{"type":"Buffer","data":[135,60,77,92,104,143,86,182,146,87,50,31,118,239,183,59,56,135,97,122]},"announce":[],"urlList":[]}}